<?xml version="1.0" encoding="utf-8"?>
<!-- Generator: Adobe Illustrator 16.0.0, SVG Export Plug-In . SVG Version: 6.00 Build 0)  -->
<!DOCTYPE svg PUBLIC "-//W3C//DTD SVG 1.1//EN" "http://www.w3.org/Graphics/SVG/1.1/DTD/svg11.dtd">
<svg version="1.1" id="Calque_1" xmlns="http://www.w3.org/2000/svg" xmlns:xlink="http://www.w3.org/1999/xlink" x="0px" y="0px"
	 width="541.5px" height="564.01px" viewBox="0 0 541.5 564.01" enable-background="new 0 0 541.5 564.01" xml:space="preserve">
<g>
	<g id="XMLID_1_">
		<g>
			<path d="M541.25,124.48c0,81.61,0,163.229,0,244.84c-0.96-0.39-1.98-0.68-2.87-1.189c-30-16.921-60.17-33.551-89.88-50.98
				c-9.431-5.53-18.841-3.88-28.83-4.03c0,2.141,0,3.771,0,5.41c0.02,18.3,0.09,36.59,0.02,54.89
				c-0.03,8.311-3.41,15.211-10.08,20.131c-6.56,4.84-14.09,7.22-22.3,7.239c-10.35,0.011-20.7,0-31.04,0
				c-94.79-0.02-189.57,0.021-284.35-0.22c-5.8-0.01-12.29-0.939-17.26-3.63c-12.85-6.96-19.5-18.84-19.58-33.21
				c-0.33-61.34-0.16-122.68-0.08-184.02c0-3.4-0.76-5.84-3.55-8.09c-12.43-10.05-21.21-22.73-25.96-38.02
				c-2.04-6.55-3.51-13.28-5.24-19.93c0-7.2,0-14.4,0-21.6c1.24-6.9,2.17-13.88,3.78-20.7C12.07,37.23,32.72,14.84,66.6,5.1
				c16.53-4.76,33.46-4.99,50.4-3.22c22.96,2.39,42.84,11.36,57.56,29.61c13.73,17.03,20.51,37.01,22.88,58.6
				c0.18,1.63,0.53,3.24,0.8,4.86c1.06-3.06,1.4-6.04,1.82-9c2.75-19.29,9.99-36.56,23.05-51.21c14.34-16.11,32.5-25.65,53.12-30.95
				c4.91-1.26,9.851-2.36,14.771-3.54c6,0,12,0,18,0c4.83,0.89,9.659,1.75,14.479,2.68c40.061,7.77,64.47,35.39,71.83,73.82
				c2.54,13.28,2.55,27.07,3.39,40.64c0.21,3.46,0.69,5.25,4.67,5.79c6.61,0.9,11.48,4.96,13.181,11.38
				c1.51,5.7,2.13,11.71,2.46,17.63c0.41,7.24,0.1,14.53,0.1,22.21c6.29,0,12.271,0.07,18.25-0.04c1.29-0.03,2.67-0.47,3.84-1.05
				c21.221-10.43,42.4-20.95,63.631-31.36C516.92,136.03,529.11,130.3,541.25,124.48z M361.12,270.68
				c0.03-34.141-27.42-61.771-61.239-61.63c-33.77,0.14-61.26,27.94-61.16,61.85c0.1,33.64,27.69,60.85,61.58,60.75
				C334.11,331.56,361.1,304.5,361.12,270.68z M345.86,122.02c6.101-23.45-3.04-50.3-26.229-63.13c-25.05-13.87-56.37-3-69.64,20.5
				c-7.49,13.27-9.16,27.34-5.32,42.31c-30.6,0-61.14,0-91.72,0c1.06-4.45,2.85-8.6,2.91-12.78c0.35-21.83-8.3-39-27.86-49.59
				c-16.62-8.98-33.68-9.54-50.08,0.4c-16.4,9.94-23.97,25.51-25.22,44.19c-1.16,17.4,4.69,31.98,18.72,42.95
				c10.57,8.26,22.78,10.87,35.79,10.85c54.3-0.07,108.6-0.15,162.9-0.29c11.391-0.03,22.8,0.16,34.15-0.61
				C322.76,155.58,341.22,139.86,345.86,122.02z M204.92,270.69c0.2-33.59-26.97-61.35-60.34-61.65
				c-33.95-0.3-62.06,27.41-62.27,61.39c-0.21,33.41,27.51,61.06,61.35,61.22C177.62,331.81,204.72,304.84,204.92,270.69z"/>
		</g>
		<g>
		</g>
	</g>
	<path fill-rule="evenodd" clip-rule="evenodd" fill="#FFFFFF" d="M0.248,113.674c1.729,6.646,3.201,13.374,5.239,19.924
		c4.758,15.289,13.536,27.973,25.966,38.022c2.783,2.249,3.551,4.688,3.546,8.09c-0.083,61.338-0.251,122.678,0.079,184.016
		c0.077,14.377,6.734,26.26,19.577,33.211c4.979,2.695,11.461,3.621,17.263,3.635c94.782,0.236,189.565,0.197,284.349,0.221
		c10.348,0.002,20.697,0.012,31.045-0.004c8.205-0.014,15.74-2.396,22.297-7.234c6.668-4.922,10.047-11.822,10.078-20.133
		c0.07-18.297,0-36.594-0.012-54.891c0-1.637,0-3.273,0-5.41c9.98,0.146,19.393-1.5,28.826,4.033
		c29.707,17.422,59.877,34.059,89.879,50.98c0.895,0.504,1.91,0.795,2.869,1.188c0,64.813,0,129.623,0,194.436
		c-62.412,0-124.824,0-187.234,0c-1.621-1.92-3.117-3.965-4.881-5.742c-8.768-8.828-17.623-17.57-26.418-26.371
		c-21.725-21.734-43.441-43.48-65.146-65.234c-5.959-5.975-11.868-11.998-18.77-18.98c29.395,0,57.35,0,85.543,0
		c0-12.256,0-23.98,0-35.678c-64.027,0-127.675,0-191.334,0c0,12.014,0,23.623,0,35.943c27.289,0,54.246,0,81.203,0
		c0.266,0.508,0.532,1.016,0.798,1.523c-1.881,1.502-3.919,2.844-5.617,4.529c-11.278,11.191-22.483,22.457-33.712,33.699
		c-17.473,17.494-34.982,34.953-52.404,52.498c-7.793,7.848-15.412,15.869-23.11,23.813c-33.306,0-66.612,0-99.918,0
		C0.248,413.73,0.248,263.703,0.248,113.674z"/>
	<path fill-rule="evenodd" clip-rule="evenodd" fill="#FFFFFF" d="M541.25,124.476c-12.143,5.819-24.326,11.555-36.418,17.478
		c-21.234,10.403-42.408,20.931-63.631,31.36c-1.174,0.577-2.549,1.02-3.836,1.043c-5.982,0.109-11.967,0.049-18.256,0.049
		c0-7.683,0.309-14.971-0.096-22.22c-0.33-5.912-0.951-11.924-2.463-17.623c-1.701-6.421-6.574-10.481-13.182-11.381
		c-3.98-0.542-4.455-2.329-4.668-5.792c-0.836-13.574-0.846-27.358-3.389-40.638c-7.363-38.431-31.771-66.048-71.834-73.821
		c-4.816-0.935-9.648-1.788-14.473-2.678c77.414,0,154.83,0,232.244,0C541.25,41.66,541.25,83.068,541.25,124.476z"/>
	<g id="XMLID_2_">
		<g>
			<path d="M354.01,563.76c-8.101,0-16.2,0-24.3,0c-5.521-5.841-10.931-11.801-16.591-17.5c-19.42-19.561-38.93-39.04-58.419-58.54
				c-6.08-6.08-12.22-12.101-18.33-18.15c-0.39,0.13-0.79,0.26-1.18,0.4c0,31.26,0,62.52,0,93.79c-5.7,0-11.4,0-17.1,0
				c0-31.061,0-62.12,0-94.11c-2.02,1.77-3.19,2.68-4.23,3.72c-24.78,24.83-49.57,49.65-74.31,74.53
				c-5.14,5.17-10.06,10.57-15.08,15.86c-8.1,0-16.2,0-24.3,0c7.69-7.95,15.31-15.971,23.11-23.82c17.42-17.54,34.93-35,52.4-52.49
				c11.23-11.25,22.43-22.51,33.71-33.7c1.7-1.689,3.74-3.029,5.62-4.529c-0.27-0.511-0.53-1.021-0.8-1.53c-26.96,0-53.91,0-81.2,0
				c0-12.32,0-23.92,0-35.94c63.66,0,127.31,0,191.33,0c0,11.7,0,23.42,0,35.681c-28.19,0-56.15,0-85.54,0
				c6.9,6.979,12.81,13.01,18.77,18.979c21.7,21.75,43.419,43.5,65.15,65.23c8.79,8.8,17.649,17.55,26.41,26.37
				C350.9,559.79,352.39,561.84,354.01,563.76z"/>
		</g>
		<g>
		</g>
	</g>
	<path fill-rule="evenodd" clip-rule="evenodd" fill="#FFFFFF" d="M291.003,0.253c-4.924,1.173-9.867,2.273-14.77,3.534
		c-20.623,5.303-38.785,14.845-53.126,30.949c-13.055,14.659-20.302,31.923-23.048,51.213c-0.422,2.962-0.756,5.937-1.816,8.998
		c-0.273-1.617-0.628-3.225-0.806-4.853c-2.363-21.595-9.142-41.573-22.881-58.606c-14.721-18.249-34.594-27.214-57.558-29.611
		C100.056,0.11,83.135,0.343,66.602,5.096C32.72,14.837,12.069,37.231,4.03,71.369C2.424,78.188,1.491,85.165,0.248,92.07
		c0-30.606,0-61.211,0-91.817C97.166,0.253,194.084,0.253,291.003,0.253z"/>
	<path fill-rule="evenodd" clip-rule="evenodd" fill="#FFFFFF" d="M235.191,563.757c0-31.264,0-62.527,0-93.789
		c0.392-0.133,0.784-0.266,1.176-0.4c6.114,6.051,12.254,12.074,18.335,18.156c19.493,19.494,38.997,38.975,58.418,58.537
		c5.66,5.701,11.066,11.658,16.59,17.496C298.205,563.757,266.697,563.757,235.191,563.757z"/>
	<path fill-rule="evenodd" clip-rule="evenodd" fill="#FFFFFF" d="M124.471,563.757c5.022-5.291,9.94-10.682,15.082-15.854
		c24.734-24.881,49.525-49.703,74.309-74.533c1.04-1.041,2.21-1.955,4.227-3.723c0,31.99,0,63.051,0,94.109
		C186.882,563.757,155.676,563.757,124.471,563.757z"/>
	<path fill-rule="evenodd" clip-rule="evenodd" fill="#FFFFFF" d="M152.954,121.703c30.574,0,61.117,0,91.72,0
		c-3.838-14.977-2.17-29.047,5.317-42.309c13.27-23.505,44.587-34.375,69.644-20.507c23.186,12.833,32.322,39.678,26.223,63.137
		c-4.639,17.838-23.1,33.553-41.598,34.801c-11.346,0.766-22.762,0.576-34.148,0.604c-54.298,0.141-108.598,0.225-162.896,0.293
		c-13.016,0.018-25.228-2.593-35.798-10.856c-14.027-10.968-19.881-25.548-18.72-42.942c1.248-18.683,8.824-34.252,25.224-44.191
		c16.403-9.941,33.461-9.387,50.074-0.4c19.566,10.583,28.213,27.754,27.868,49.585C155.797,113.1,154.012,117.254,152.954,121.703z
		"/>
	<path fill-rule="evenodd" clip-rule="evenodd" fill="#FFFFFF" d="M204.919,270.693c-0.2,34.145-27.302,61.115-61.254,60.957
		c-33.848-0.158-61.561-27.809-61.355-61.217c0.208-33.982,28.32-61.696,62.273-61.391
		C177.948,209.343,205.117,237.103,204.919,270.693z M167.956,270.931c0.25-14.002-10.081-24.775-23.93-24.949
		c-13.603-0.172-24.354,10.176-24.767,23.838c-0.41,13.576,10.41,24.777,24.096,24.947
		C156.999,294.937,167.712,284.556,167.956,270.931z"/>
	<path fill-rule="evenodd" clip-rule="evenodd" fill="#FFFFFF" d="M300.304,331.656c-33.899,0.092-61.483-27.119-61.584-60.75
		c-0.102-33.914,27.388-61.715,61.159-61.855c33.818-0.138,61.271,27.486,61.246,61.63
		C361.101,304.503,334.109,331.564,300.304,331.656z M324.535,269.916c0.027-13.498-10.564-24.363-23.971-24.592
		c-13.521-0.23-24.982,11.139-24.889,24.689c0.094,13.387,11.426,24.551,24.764,24.398
		C313.824,294.259,324.509,283.396,324.535,269.916z"/>
	<g id="XMLID_3_">
		<g>
			<path d="M300.56,245.32c13.41,0.23,24,11.1,23.97,24.6c-0.02,13.48-10.71,24.341-24.09,24.49
				c-13.34,0.15-24.67-11.01-24.77-24.399C275.581,256.459,287.041,245.09,300.56,245.32z"/>
			<path d="M144.03,245.98c13.84,0.18,24.18,10.95,23.93,24.95c-0.25,13.63-10.96,24.01-24.6,23.84
				c-13.69-0.17-24.51-11.37-24.1-24.95C119.67,256.16,130.42,245.81,144.03,245.98z"/>
		</g>
		<g>
		</g>
	</g>
</g>
</svg>
